<mxfile host="app.diagrams.net" modified="2023-02-16T09:28:39.471Z" agent="5.0 (Windows NT 10.0; Win64; x64) AppleWebKit/537.36 (KHTML, like Gecko) Chrome/109.0.0.0 Safari/537.36" etag="rvPSJIfa-Y_72pel6Q7c" version="20.8.20" type="github">
  <diagram name="第 1 页" id="WZoYwk3wwYUyAOIoJLB3">
    <mxGraphModel dx="1050" dy="549" grid="1" gridSize="10" guides="1" tooltips="1" connect="1" arrows="1" fold="1" page="1" pageScale="1" pageWidth="827" pageHeight="1169" math="1" shadow="0">
      <root>
        <mxCell id="0" />
        <mxCell id="1" parent="0" />
        <mxCell id="mre6Zo7Zg69XgWqU70oJ-1" value="&lt;font&gt;Encoder&lt;/font&gt;" style="rounded=1;whiteSpace=wrap;html=1;fontFamily=Times New Roman;" vertex="1" parent="1">
          <mxGeometry x="120" y="80" width="120" height="20" as="geometry" />
        </mxCell>
        <mxCell id="mre6Zo7Zg69XgWqU70oJ-2" value="&lt;font&gt;Decoder&lt;/font&gt;" style="rounded=1;whiteSpace=wrap;html=1;fontFamily=Times New Roman;" vertex="1" parent="1">
          <mxGeometry x="120" y="160" width="120" height="20" as="geometry" />
        </mxCell>
        <mxCell id="mre6Zo7Zg69XgWqU70oJ-3" value="$$\mu_\theta$$" style="rounded=1;whiteSpace=wrap;html=1;fontFamily=Times New Roman;" vertex="1" parent="1">
          <mxGeometry x="120" y="120" width="40" height="20" as="geometry" />
        </mxCell>
        <mxCell id="mre6Zo7Zg69XgWqU70oJ-4" value="$$b_\theta$$" style="rounded=1;whiteSpace=wrap;html=1;fontFamily=Times New Roman;" vertex="1" parent="1">
          <mxGeometry x="200" y="120" width="40" height="20" as="geometry" />
        </mxCell>
        <mxCell id="mre6Zo7Zg69XgWqU70oJ-10" value="" style="group" vertex="1" connectable="0" parent="1">
          <mxGeometry x="440" y="150" width="130" height="105" as="geometry" />
        </mxCell>
        <mxCell id="mre6Zo7Zg69XgWqU70oJ-7" value="" style="endArrow=none;html=1;fontFamily=Times New Roman;curved=1;" edge="1" parent="mre6Zo7Zg69XgWqU70oJ-10">
          <mxGeometry width="50" height="50" relative="1" as="geometry">
            <mxPoint x="12.5" y="92.79069767441861" as="sourcePoint" />
            <mxPoint x="117.50000000000001" y="92.79069767441861" as="targetPoint" />
            <Array as="points">
              <mxPoint x="57.5" y="87.90697674418604" />
              <mxPoint x="62.5" />
              <mxPoint x="67.5" y="92.79069767441861" />
            </Array>
          </mxGeometry>
        </mxCell>
        <mxCell id="mre6Zo7Zg69XgWqU70oJ-8" value="" style="endArrow=classic;html=1;fontFamily=Times New Roman;curved=1;" edge="1" parent="mre6Zo7Zg69XgWqU70oJ-10">
          <mxGeometry width="50" height="50" relative="1" as="geometry">
            <mxPoint x="40" y="105" as="sourcePoint" />
            <mxPoint x="40" y="17.093023255813954" as="targetPoint" />
          </mxGeometry>
        </mxCell>
        <mxCell id="mre6Zo7Zg69XgWqU70oJ-9" value="" style="endArrow=classic;html=1;fontFamily=Times New Roman;curved=1;" edge="1" parent="mre6Zo7Zg69XgWqU70oJ-10">
          <mxGeometry width="50" height="50" relative="1" as="geometry">
            <mxPoint y="95.23255813953489" as="sourcePoint" />
            <mxPoint x="130" y="95.23255813953489" as="targetPoint" />
          </mxGeometry>
        </mxCell>
      </root>
    </mxGraphModel>
  </diagram>
</mxfile>
